<svg width="16" height="17" viewBox="0 0 16 17" fill="none" xmlns="http://www.w3.org/2000/svg">
<path fill-rule="evenodd" clip-rule="evenodd" d="M1 8V11C1 13.7614 3.23858 16 6 16H10C11.3261 16 12.5979 15.4732 13.5355 14.5355C14.4732 13.5979 15 12.3261 15 11V8C15.0013 6.67351 14.475 5.40097 13.537 4.463C12.599 3.52503 11.3265 2.99867 10 3H6C4.67351 2.99867 3.40097 3.52503 2.463 4.463C1.52503 5.40097 0.998674 6.67351 1 8V8Z" stroke="#04D300" stroke-width="1.5" stroke-linecap="round" stroke-linejoin="round"/>
<path d="M4.25 5C4.25 5.41421 4.58579 5.75 5 5.75C5.41421 5.75 5.75 5.41421 5.75 5H4.25ZM5.75 1C5.75 0.585786 5.41421 0.25 5 0.25C4.58579 0.25 4.25 0.585786 4.25 1H5.75ZM10.25 5C10.25 5.41421 10.5858 5.75 11 5.75C11.4142 5.75 11.75 5.41421 11.75 5H10.25ZM11.75 1C11.75 0.585786 11.4142 0.25 11 0.25C10.5858 0.25 10.25 0.585786 10.25 1H11.75ZM5.53033 9.46967C5.23744 9.17678 4.76256 9.17678 4.46967 9.46967C4.17678 9.76256 4.17678 10.2374 4.46967 10.5303L5.53033 9.46967ZM7 12L6.46967 12.5303C6.76256 12.8232 7.23744 12.8232 7.53033 12.5303L7 12ZM11.5303 8.53033C11.8232 8.23744 11.8232 7.76256 11.5303 7.46967C11.2374 7.17678 10.7626 7.17678 10.4697 7.46967L11.5303 8.53033ZM5.75 5V1H4.25V5H5.75ZM11.75 5V1H10.25V5H11.75ZM4.46967 10.5303L6.46967 12.5303L7.53033 11.4697L5.53033 9.46967L4.46967 10.5303ZM7.53033 12.5303L11.5303 8.53033L10.4697 7.46967L6.46967 11.4697L7.53033 12.5303Z" fill="#04D300"/>
</svg>
