<?xml version="1.0" encoding="iso-8859-1"?>
<!-- Uploaded to: SVG Repo, www.svgrepo.com, Generator: SVG Repo Mixer Tools -->
<svg fill="#000000" height="800px" width="800px" version="1.1" id="Layer_1" xmlns="http://www.w3.org/2000/svg" xmlns:xlink="http://www.w3.org/1999/xlink" 
	 viewBox="0 0 512 512" xml:space="preserve">
<g>
	<g>
		<g>
			<path d="M346.674,220.36c26.489,0,48.04-21.551,48.04-48.041c0-26.49-21.551-48.041-48.04-48.041
				c-26.49,0-48.043,21.551-48.043,48.041C298.632,198.809,320.184,220.36,346.674,220.36z M346.674,140.266
				c17.673,0,32.051,14.378,32.051,32.053c0,17.674-14.378,32.052-32.051,32.052c-17.674,0-32.054-14.378-32.054-32.052
				C314.621,154.645,329,140.266,346.674,140.266z"/>
			<path d="M442.403,433.399h-0.618c-0.003-0.004-0.008-0.007-0.012-0.012V411.78c0-31.835-20.033-60.533-49.397-71.794v-8.284
				c0-7.342-1.674-14.391-4.884-20.789c39.484-22.575,66.153-65.109,66.153-113.757c0-29.638-9.904-57.003-26.567-78.974
				c-2.072-24.495-13.009-52.623-30.28-77.618C379.246,15.164,360.023,0,345.375,0c-21.827,0-50.139,32.891-66.382,66.214h-19.904
				C242.846,32.891,214.534,0,192.708,0c-14.648,0-33.872,15.164-51.425,40.565c-17.271,24.995-28.208,53.123-30.279,77.619
				c-16.664,21.969-26.567,49.334-26.567,78.973c0,48.648,26.67,91.182,66.154,113.757c-3.211,6.397-4.884,13.447-4.884,20.789
				v8.284c-12.149,4.659-22.694,12.309-30.89,21.927c-18.191-14.437-28.855-36.249-28.855-59.695
				c0-15.347-12.486-27.834-27.834-27.834c-15.348,0-27.834,12.486-27.834,27.834c-0.001,47.302,25.171,90.636,66.015,114.251
				v16.917c-0.004,0.004-0.009,0.008-0.013,0.013h-0.617c-21.671,0-39.302,17.63-39.302,39.301c0,21.67,17.632,39.3,39.302,39.3
				h250.172h96.551c21.67,0,39.301-17.629,39.301-39.3C481.704,451.03,464.074,433.399,442.403,433.399z M72.368,472.7
				c0-9.204,5.364-17.179,13.129-20.965c-1.346,4.346-2.073,8.96-2.073,13.742c0,11.668,4.328,22.339,11.449,30.513
				C82.391,495.562,72.368,485.284,72.368,472.7z M392.376,357.468c20.098,10.223,33.408,31.221,33.408,54.312v10.659
				c-5.446-2.242-11.404-3.487-17.65-3.487h-15.759V357.468z M320.311,33.047c11.65-12.577,20.585-17.058,25.064-17.058
				c7.457,0,22.997,11.564,38.27,33.665c10.304,14.911,18.244,31.374,22.962,47.057c-6.319-5.287-13.143-9.988-20.387-14.023
				c-9.656-21.973-26.108-44.646-40.844-44.646c-13.254,0-25.804,17.357-32.336,28.175h-16.072
				C303.673,53.856,311.859,42.17,320.311,33.047z M362.803,72.503c-9.815-3.165-20.13-5.202-30.797-5.954
				c6.218-8.423,11.419-12.342,13.327-12.52C348.169,54.286,355.389,60.797,362.803,72.503z M154.438,49.654
				c15.273-22.101,30.813-33.665,38.27-33.665c4.478,0,13.413,4.481,25.063,17.058c8.451,9.123,16.638,20.809,23.344,33.167h-16.072
				c-6.532-10.817-19.082-28.175-32.335-28.175c-14.739,0-31.19,22.673-40.844,44.646c-7.244,4.036-14.068,8.736-20.388,14.024
				C136.194,81.028,144.135,64.565,154.438,49.654z M206.075,66.549c-10.667,0.753-20.983,2.791-30.799,5.955
				c7.408-11.707,14.612-18.219,17.391-18.476C194.634,54.207,199.852,58.125,206.075,66.549z M100.427,197.156
				c0-63.385,51.568-114.953,114.954-114.953h107.324c63.385,0,114.953,51.568,114.953,114.953S386.09,312.109,322.705,312.109
				H215.381C151.994,312.109,100.427,260.542,100.427,197.156z M112.299,411.78h0.001c0-23.091,13.309-44.089,33.408-54.312v61.485
				h-15.761c-6.245,0-12.202,1.245-17.649,3.487V411.78z M46.285,302.218c0-6.532,5.314-11.845,11.845-11.845
				s11.845,5.314,11.845,11.845c0,28.74,13.238,55.439,35.763,72.885c-3.935,7.204-6.744,15.053-8.22,23.278
				C65.64,376.921,46.284,341.092,46.285,302.218z M192.229,496.011h-62.282c-16.837,0-30.535-13.697-30.535-30.535
				s13.698-30.535,30.535-30.535h23.754c4.415,0,7.994-3.579,7.994-7.994v-95.245c0-4.848,1.13-9.492,3.26-13.708
				c15.528,6.504,32.563,10.103,50.424,10.103h7.152c0.141,1.193,0.232,2.393,0.233,3.605v133.774h0.001
				C222.765,482.313,209.067,496.011,192.229,496.011z M227.287,496.012v-0.001c7.132-8.178,11.467-18.856,11.467-30.535V331.701
				c0-1.206-0.047-2.407-0.139-3.603h60.852c-0.092,1.196-0.139,2.398-0.139,3.605v133.774c0,11.678,4.335,22.357,11.467,30.535
				H227.287z M408.136,496.011h-62.282c-16.837,0-30.535-13.697-30.535-30.535V331.702c0-1.212,0.092-2.412,0.232-3.605h7.153
				c17.861,0,34.895-3.6,50.424-10.103c2.13,4.217,3.261,8.861,3.261,13.708v95.245c0,4.415,3.579,7.994,7.995,7.994h23.753
				c16.837,0,30.535,13.698,30.535,30.535C438.67,482.314,424.973,496.011,408.136,496.011z M443.21,495.991
				c7.121-8.176,11.449-18.846,11.449-30.513c0-4.782-0.727-9.397-2.073-13.743c7.765,3.787,13.129,11.76,13.129,20.966
				C465.715,485.284,455.691,495.563,443.21,495.991z"/>
			<path d="M239.451,172.319c0-26.49-21.551-48.041-48.04-48.041c-26.492,0-48.042,21.551-48.042,48.041
				s21.552,48.041,48.042,48.041C217.899,220.36,239.451,198.809,239.451,172.319z M191.41,204.371
				c-17.675,0-32.054-14.378-32.054-32.052c0-17.674,14.379-32.053,32.054-32.053c17.673,0,32.051,14.378,32.051,32.053
				C223.463,189.992,209.083,204.371,191.41,204.371z"/>
			<path d="M191.41,147.955c-4.415,0-7.995,3.579-7.995,7.995v32.738c0,4.415,3.579,7.994,7.995,7.994
				c4.415,0,7.994-3.579,7.994-7.994V155.95C199.404,151.535,195.825,147.955,191.41,147.955z"/>
			<path d="M346.674,196.682c4.415,0,7.994-3.579,7.994-7.994V155.95c0-4.415-3.579-7.995-7.994-7.995
				c-4.415,0-7.995,3.579-7.995,7.995v32.738C338.68,193.103,342.259,196.682,346.674,196.682z"/>
			<path d="M229.032,217.016c-1.31,3.163-2.372,9.603,5.232,17.204l17.101,17.102c4.709,4.708,10.987,7.303,17.677,7.303
				c6.692,0,12.969-2.593,17.676-7.302l17.103-17.102c7.601-7.602,6.538-14.043,5.228-17.204c-1.31-3.163-5.112-8.468-15.864-8.468
				h-48.291C234.144,208.548,230.342,213.853,229.032,217.016z M290.891,224.537l-15.48,15.479c-1.687,1.687-3.95,2.618-6.37,2.618
				c-2.42,0-4.683-0.931-6.372-2.619l-15.477-15.478H290.891z"/>
		</g>
	</g>
</g>
</svg>