<?xml version="1.0" encoding="utf-8"?>

<!DOCTYPE svg PUBLIC "-//W3C//DTD SVG 1.0//EN" "http://www.w3.org/TR/2001/REC-SVG-20010904/DTD/svg10.dtd">
<!-- Uploaded to: SVG Repo, www.svgrepo.com, Generator: SVG Repo Mixer Tools -->
<svg version="1.0" id="Layer_1" xmlns="http://www.w3.org/2000/svg" xmlns:xlink="http://www.w3.org/1999/xlink" 
	 width="800px" height="800px" viewBox="0 0 64 64" enable-background="new 0 0 64 64" xml:space="preserve">
<g>
	<path fill-rule="evenodd" clip-rule="evenodd" fill="#231F20" d="M60,0H16c-2.211,0-4,1.789-4,4v4h38c3.438,0,6,2.656,6,6v22h4
		c2.211,0,4-1.789,4-4V4C64,1.789,62.211,0,60,0z"/>
	<path fill-rule="evenodd" clip-rule="evenodd" fill="#231F20" d="M50,10H4c-2.211,0-4,1.789-4,4v30c0,2.211,1.789,4,4,4h7
		c0.553,0,1,0.447,1,1v11c0,1.617,0.973,3.078,2.469,3.695C14.965,63.902,15.484,64,16,64c1.039,0,2.062-0.406,2.828-1.172
		l14.156-14.156c0,0,0.516-0.672,1.672-0.672S50,48,50,48c2.211,0,4-1.789,4-4V14C54,11.791,52.209,10,50,10z M13,22h13
		c0.553,0,1,0.447,1,1s-0.447,1-1,1H13c-0.553,0-1-0.447-1-1S12.447,22,13,22z M34,36H13c-0.553,0-1-0.447-1-1s0.447-1,1-1h21
		c0.553,0,1,0.447,1,1S34.553,36,34,36z M41,30H13c-0.553,0-1-0.447-1-1s0.447-1,1-1h28c0.553,0,1,0.447,1,1S41.553,30,41,30z"/>
</g>
</svg>