<?xml version="1.0" encoding="utf-8"?>

<!DOCTYPE svg PUBLIC "-//W3C//DTD SVG 1.1//EN" "http://www.w3.org/Graphics/SVG/1.1/DTD/svg11.dtd">
<!-- Uploaded to: SVG Repo, www.svgrepo.com, Generator: SVG Repo Mixer Tools -->
<svg height="800px" width="800px" version="1.1" id="_x32_" xmlns="http://www.w3.org/2000/svg" xmlns:xlink="http://www.w3.org/1999/xlink" 
	 viewBox="0 0 512 512"  xml:space="preserve">
<style type="text/css">
	.st0{fill:#000000;}
</style>
<g>
	<path class="st0" d="M511.529,337.45H7.928c7.129,26.637,16.478,44.576,16.478,44.576h147.537v-24.6l50.715,24.6h285.854
		C511.788,364.888,512.661,350.196,511.529,337.45z"/>
	<path class="st0" d="M373.266,245.244c-21.795-4.207-40.727-13.456-56.888-24.976c-1.406,1.403-3.138,2.505-5.192,3.081
		l-64.48,17.956c-6.336,1.769-12.905-1.937-14.675-8.273c-1.762-6.344,1.949-12.913,8.28-14.683l55.31-15.392
		c-8.076-7.756-15.184-15.844-21.328-23.716l-58.737,15.084c-6.369,1.636-12.859-2.204-14.495-8.565
		c-1.636-6.378,2.204-12.872,8.577-14.508l49.988-12.847c-10.359-16.369-15.451-28.431-15.451-28.431H18.262
		c0,0,3.072,43.03-13.832,112.198c-6.194,25.31-5.158,50.82-1.377,72.99h503.785C490.503,269.16,437.237,257.582,373.266,245.244z"
		/>
</g>
</svg>